<svg xmlns="http://www.w3.org/2000/svg" xmlns:xlink="http://www.w3.org/1999/xlink" width="256" zoomAndPan="magnify" viewBox="0 0 192 191.999996" height="256" preserveAspectRatio="xMidYMid meet" version="1.0"><defs><clipPath id="f43e9c75a4"><path d="M 130 19.328125 L 151 19.328125 L 151 45 L 130 45 Z M 130 19.328125 " clip-rule="nonzero"/></clipPath><clipPath id="66f08a9ac1"><path d="M 3.203125 22 L 188.453125 22 L 188.453125 172.328125 L 3.203125 172.328125 Z M 3.203125 22 " clip-rule="nonzero"/></clipPath></defs><g clip-path="url(#f43e9c75a4)"><path fill="#ffffff" d="M 147.453125 41.554688 C 148.082031 42.742188 149.53125 43.261719 150.53125 44.117188 C 149.457031 40.292969 148.195312 36.546875 147.007812 32.796875 C 147.007812 32.796875 147.007812 32.761719 147.007812 32.761719 L 146.894531 32.648438 L 145.558594 31.535156 L 133.683594 21.664062 L 131.570312 19.882812 L 130.902344 19.328125 C 133.277344 24.523438 136.097656 29.496094 138.621094 34.617188 C 141.699219 36.730469 144.371094 39.402344 147.453125 41.554688 Z M 147.453125 41.554688 " fill-opacity="1" fill-rule="nonzero"/></g><path fill="#ffffff" d="M 146.820312 49.683594 C 148.675781 49.164062 150.570312 49.273438 152.425781 49.90625 C 149.828125 47.492188 146.820312 45.636719 143.964844 43.523438 C 144.519531 45.75 145.746094 47.679688 146.820312 49.683594 Z M 146.820312 49.683594 " fill-opacity="1" fill-rule="nonzero"/><path fill="#ffffff" d="M 153.722656 62.597656 C 154.390625 63.5625 155.207031 64.378906 156.136719 65.085938 C 156.171875 62.894531 156.097656 60.667969 156.023438 58.480469 C 151.90625 60.113281 147.824219 61.929688 143.851562 63.898438 C 147.191406 63.824219 150.457031 63.117188 153.722656 62.597656 Z M 153.722656 62.597656 " fill-opacity="1" fill-rule="nonzero"/><path fill="#ffffff" d="M 155.617188 57.699219 C 157.324219 56.585938 158.4375 54.878906 159.625 53.246094 C 157.84375 51.984375 155.914062 50.980469 153.910156 50.203125 C 155.246094 52.503906 155.800781 55.027344 155.617188 57.699219 Z M 155.617188 57.699219 " fill-opacity="1" fill-rule="nonzero"/><g clip-path="url(#66f08a9ac1)"><path fill="#ffffff" d="M 176.175781 76.625 L 176.175781 75.882812 C 166.898438 75.773438 157.582031 75.328125 148.304688 75.179688 C 140.699219 73.917969 133.683594 77.589844 126.523438 79.335938 L 127.152344 79.59375 L 126.523438 79.410156 L 126.003906 79.742188 C 125.667969 79.707031 124.964844 79.667969 124.628906 79.632812 C 125.890625 79.558594 126.894531 78.742188 128.007812 78.222656 C 130.492188 76.589844 133.574219 75.882812 135.835938 73.878906 C 137.765625 73.621094 139.363281 72.320312 141.105469 71.46875 C 138.917969 70.132812 136.652344 68.945312 134.425781 67.683594 C 135.503906 64.304688 136.765625 61.003906 137.730469 57.589844 C 138.0625 56.921875 138.398438 55.882812 138.730469 55.027344 C 135.835938 55.734375 132.867188 56.03125 130.011719 56.808594 C 127.671875 56.957031 125.371094 57.441406 123.109375 57.996094 L 123.035156 57.8125 C 127.671875 55.917969 132.125 53.582031 136.652344 51.429688 L 136.691406 51.429688 C 132.832031 48.347656 121.585938 45.488281 113.125 43.671875 C 107.929688 42.558594 103.773438 41.851562 103.070312 41.703125 L 113.683594 43.078125 L 117.058594 43.523438 L 131.71875 45.453125 C 131.605469 43.300781 131.53125 41.148438 131.347656 39.03125 L 131.496094 38.179688 C 133.683594 37.769531 135.429688 36.285156 137.359375 35.285156 L 137.210938 33.09375 C 135.875 29.199219 132.3125 26.453125 129.863281 23.1875 C 124.480469 23.074219 119.0625 22.667969 113.683594 22.925781 L 112.382812 22.925781 L 112.421875 22.890625 C 110.378906 22.851562 108.339844 22.851562 106.296875 22.851562 L 107.375 26.304688 C 107.335938 26.378906 107.300781 26.453125 107.261719 26.527344 L 87.742188 33.910156 L 86.886719 34.246094 L 87.148438 34.542969 L 87.40625 34.800781 L 87.777344 35.210938 L 93.234375 40.851562 C 88.410156 43.375 83.957031 46.675781 79.503906 49.832031 C 79.242188 49.90625 78.722656 50.054688 78.425781 50.128906 C 79.984375 51.503906 81.617188 52.875 83.4375 53.953125 C 80.542969 56.660156 78.09375 60.074219 75.71875 63.339844 C 80.355469 62.859375 84.660156 60.519531 89.335938 60.371094 C 86.183594 61.746094 82.953125 63.117188 80.097656 65.046875 C 76.90625 68.351562 73.789062 71.691406 70.746094 75.066406 C 68.480469 77.441406 66.292969 79.855469 64.140625 82.304688 C 62.691406 82.785156 61.207031 83.195312 59.761719 83.601562 C 55.605469 84.753906 51.484375 85.941406 47.328125 87.089844 C 47.03125 87.683594 46.734375 88.242188 46.476562 88.835938 L 46.847656 87.3125 C 46.03125 87.5 44.398438 87.832031 43.542969 88.019531 C 40.539062 89.503906 37.753906 91.320312 34.898438 93.066406 C 34.675781 92.992188 34.265625 92.878906 34.042969 92.84375 C 30.816406 88.796875 27.289062 85.011719 24.097656 80.929688 C 29.703125 73.878906 35.269531 66.753906 40.796875 59.59375 L 40.984375 59.554688 C 41.875 58.40625 42.617188 57.105469 43.765625 56.179688 C 45.585938 55.511719 47.476562 55.140625 49.296875 54.472656 C 50.59375 54.101562 51.929688 53.765625 53.265625 53.65625 C 52.933594 53.507812 52.339844 53.246094 52.003906 53.097656 C 52.375 53.0625 53.117188 53.023438 53.488281 52.988281 C 54.972656 49.125 56.792969 45.414062 58.015625 41.445312 C 58.425781 40.480469 58.871094 39.515625 59.242188 38.511719 C 53.710938 39.070312 48.367188 40.925781 42.949219 42 C 41.910156 45.5625 40.835938 49.089844 40.277344 52.765625 C 39.015625 54.730469 37.457031 56.476562 35.824219 58.144531 C 28.738281 65.976562 21.5 73.695312 14.671875 81.746094 C 14.261719 82.15625 13.445312 83.007812 13.074219 83.417969 L 12.59375 83.566406 C 12.777344 83.640625 13.148438 83.789062 13.335938 83.863281 C 15.671875 90.097656 19.273438 95.8125 21.871094 101.933594 C 23.542969 104.011719 25.695312 105.609375 27.625 107.425781 C 32.003906 102.492188 35.898438 97.109375 40.316406 92.210938 C 37.71875 96.628906 34.75 100.785156 32.261719 105.238281 L 31.929688 105.238281 C 31.632812 106.128906 31.296875 107.019531 30.964844 107.910156 L 30.59375 107.09375 C 29.035156 112.398438 27.402344 117.667969 25.84375 122.976562 C 23.46875 131.179688 20.867188 139.34375 18.714844 147.617188 C 16.675781 148.433594 14.855469 149.734375 12.851562 150.660156 L 12.332031 151.476562 C 12.148438 151.738281 11.777344 152.292969 11.589844 152.554688 C 10.8125 154.742188 9.921875 156.933594 8.992188 159.085938 C 8.882812 159.34375 8.660156 159.902344 8.511719 160.160156 C 8.363281 160.457031 8.101562 161.089844 7.953125 161.386719 C 7.84375 161.609375 7.65625 162.089844 7.546875 162.3125 C 6.433594 165.023438 5.097656 167.65625 4.242188 170.441406 C 3.984375 170.996094 3.464844 172.109375 3.203125 172.667969 C 8.324219 170.292969 13.558594 168.066406 18.457031 165.28125 C 25.136719 156.933594 31.667969 148.472656 38.199219 140.011719 C 38.570312 139.714844 39.351562 139.15625 39.722656 138.859375 C 33.042969 148.769531 26.324219 158.714844 20.050781 168.882812 C 23.578125 166.804688 26.769531 164.242188 30.183594 161.980469 C 31.445312 161.050781 32.96875 160.308594 33.746094 158.863281 C 38.3125 150.957031 42.726562 142.941406 47.367188 135.074219 C 53.378906 130.175781 60.058594 126.09375 66.105469 121.230469 C 67.257812 117.59375 68.519531 114.03125 69.484375 110.359375 C 71.003906 105.460938 73.046875 100.671875 73.789062 95.589844 C 74.011719 95.21875 74.492188 94.4375 74.714844 94.066406 C 75.160156 93.917969 75.570312 93.734375 75.976562 93.472656 C 73.007812 95.625 73.640625 99.78125 73.566406 103.121094 C 73.417969 103.34375 73.082031 103.828125 72.933594 104.050781 C 72.898438 106.574219 72.601562 109.058594 72.339844 111.546875 C 72.042969 114.292969 72.007812 117.074219 71.96875 119.859375 C 87.296875 114.8125 102.773438 110.359375 118.0625 105.238281 C 116.875 101.082031 115.761719 96.886719 114.683594 92.730469 C 113.792969 91.46875 112.902344 90.246094 112.085938 88.945312 C 111.085938 87.203125 109.339844 85.792969 109.304688 83.601562 C 112.570312 87.609375 116.09375 91.433594 119.546875 95.292969 C 123.8125 96.515625 128.339844 96.738281 132.71875 97.445312 L 132.941406 97.257812 C 137.433594 97.332031 141.773438 95.699219 146.191406 95.179688 C 148.378906 96.851562 150.496094 98.667969 152.832031 100.191406 C 154.652344 100.523438 156.46875 100.488281 158.324219 100.5625 C 161.035156 100.96875 163.929688 100.339844 166.527344 101.414062 C 169.53125 102.601562 172.425781 104.011719 175.433594 105.199219 C 176.917969 101.824219 178.402344 98.410156 179.738281 94.957031 C 179.367188 94.921875 178.664062 94.882812 178.292969 94.882812 C 168.9375 90.355469 159.140625 86.683594 149.457031 82.898438 C 151.015625 83.046875 152.535156 83.195312 154.058594 83.417969 C 156.171875 84.417969 158.546875 84.828125 160.738281 85.605469 L 161.109375 85.308594 C 165.078125 85.308594 168.976562 84.53125 172.945312 84.457031 C 175.320312 86.199219 177.511719 88.167969 179.960938 89.761719 C 181.890625 90.503906 184.007812 90.171875 186.011719 90.320312 C 186.976562 87.460938 188.3125 84.679688 188.792969 81.671875 C 184.488281 80.078125 180.667969 77.40625 176.175781 76.625 Z M 102.921875 41.777344 C 102.808594 41.777344 102.699219 41.742188 102.585938 41.703125 Z M 102.921875 41.777344 " fill-opacity="1" fill-rule="nonzero"/></g></svg>