<svg xmlns="http://www.w3.org/2000/svg" xmlns:xlink="http://www.w3.org/1999/xlink" width="552" zoomAndPan="magnify" viewBox="0 0 414 277.499997" height="370" preserveAspectRatio="xMidYMid meet" version="1.0"><defs><clipPath id="9395892569"><path d="M 0.636719 96 L 84 96 L 84 100 L 0.636719 100 Z M 0.636719 96 " clip-rule="nonzero"/></clipPath><clipPath id="e0a0f5d7c5"><path d="M 96 0.425781 L 100 0.425781 L 100 83 L 96 83 Z M 96 0.425781 " clip-rule="nonzero"/></clipPath><clipPath id="c7ac57aa23"><path d="M 96 112 L 100 112 L 100 194.867188 L 96 194.867188 Z M 96 112 " clip-rule="nonzero"/></clipPath><clipPath id="c0453cd546"><path d="M 112 96 L 195.078125 96 L 195.078125 100 L 112 100 Z M 112 96 " clip-rule="nonzero"/></clipPath><clipPath id="df60c996fe"><rect x="0" width="196" y="0" height="195"/></clipPath></defs><g transform="matrix(1, 0, 0, 1, 109, 41)"><g clip-path="url(#df60c996fe)"><g clip-path="url(#9395892569)"><path fill="#000000" d="M 0.636719 96.304688 C 1.023438 96.285156 1.410156 96.238281 1.796875 96.238281 L 61.902344 96.238281 C 62.132812 96.238281 62.378906 96.238281 62.617188 96.25 C 62.914062 96.25 63.15625 96.351562 63.207031 96.683594 C 63.28125 97.160156 63.632812 97.195312 64.007812 97.195312 L 81.746094 97.195312 C 82.015625 97.195312 82.285156 97.195312 82.554688 97.195312 C 82.882812 97.214844 83.257812 97.222656 83.242188 97.699219 C 83.222656 98.117188 82.890625 98.121094 82.585938 98.132812 C 82.316406 98.144531 82.046875 98.132812 81.78125 98.132812 L 64.667969 98.132812 C 64.398438 98.132812 64.132812 98.132812 63.859375 98.132812 C 63.53125 98.132812 63.265625 98.210938 63.226562 98.59375 C 63.183594 99.019531 62.890625 99.121094 62.539062 99.128906 C 62.183594 99.140625 61.824219 99.140625 61.464844 99.140625 L 0.636719 99.140625 Z M 0.636719 96.304688 " fill-opacity="1" fill-rule="nonzero"/></g><g clip-path="url(#e0a0f5d7c5)"><path fill="#000000" d="M 99.382812 0.425781 C 99.398438 0.8125 99.433594 1.203125 99.433594 1.589844 C 99.433594 21.589844 99.433594 41.59375 99.433594 61.59375 C 99.433594 61.804688 99.433594 62.011719 99.433594 62.222656 C 99.433594 62.582031 99.355469 62.871094 98.949219 62.96875 C 98.601562 63.054688 98.492188 63.316406 98.492188 63.644531 C 98.492188 63.914062 98.492188 64.179688 98.492188 64.449219 C 98.492188 70.183594 98.492188 75.914062 98.492188 81.640625 C 98.492188 81.96875 98.472656 82.296875 98.425781 82.621094 C 98.402344 82.722656 98.347656 82.808594 98.261719 82.871094 C 98.175781 82.933594 98.082031 82.960938 97.976562 82.957031 C 97.871094 82.949219 97.777344 82.910156 97.699219 82.839844 C 97.621094 82.765625 97.578125 82.679688 97.5625 82.574219 C 97.542969 82.273438 97.539062 81.976562 97.539062 81.679688 C 97.539062 75.917969 97.539062 70.15625 97.539062 64.394531 C 97.539062 64.152344 97.539062 63.914062 97.539062 63.675781 C 97.539062 63.3125 97.457031 63.023438 97.042969 62.949219 C 96.628906 62.875 96.539062 62.578125 96.53125 62.222656 C 96.53125 62.042969 96.53125 61.863281 96.53125 61.683594 C 96.53125 41.382812 96.53125 21.082031 96.53125 0.78125 C 96.53125 0.660156 96.53125 0.550781 96.53125 0.421875 Z M 99.382812 0.425781 " fill-opacity="1" fill-rule="nonzero"/></g><g clip-path="url(#c7ac57aa23)"><path fill="#000000" d="M 96.515625 194.875 C 96.515625 194.457031 96.492188 194.035156 96.492188 193.621094 L 96.492188 134.121094 C 96.492188 133.855469 96.492188 133.585938 96.492188 133.316406 C 96.492188 132.859375 96.535156 132.46875 97.121094 132.429688 C 97.414062 132.410156 97.519531 132.199219 97.527344 131.933594 C 97.535156 131.664062 97.527344 131.394531 97.527344 131.125 C 97.527344 125.332031 97.527344 119.535156 97.527344 113.742188 C 97.523438 113.414062 97.539062 113.085938 97.574219 112.761719 C 97.582031 112.667969 97.621094 112.589844 97.691406 112.523438 C 97.761719 112.460938 97.84375 112.429688 97.9375 112.429688 C 98.167969 112.410156 98.367188 112.496094 98.394531 112.738281 C 98.445312 113.0625 98.46875 113.386719 98.464844 113.714844 C 98.464844 119.449219 98.464844 125.1875 98.464844 130.917969 C 98.464844 131.1875 98.464844 131.457031 98.464844 131.726562 C 98.464844 132.078125 98.523438 132.382812 98.953125 132.457031 C 99.28125 132.515625 99.371094 132.757812 99.382812 133.050781 C 99.390625 133.339844 99.394531 133.648438 99.394531 133.945312 C 99.394531 153.867188 99.394531 173.789062 99.394531 193.710938 C 99.394531 194.097656 99.371094 194.484375 99.355469 194.875 Z M 96.515625 194.875 " fill-opacity="1" fill-rule="nonzero"/></g><g clip-path="url(#c0453cd546)"><path fill="#000000" d="M 195.082031 99.171875 C 183.554688 99.171875 172.027344 99.171875 160.5 99.171875 C 151.808594 99.171875 143.117188 99.171875 134.429688 99.171875 C 134.101562 99.171875 133.773438 99.171875 133.445312 99.171875 C 133.117188 99.171875 132.78125 99.070312 132.71875 98.660156 C 132.65625 98.25 132.378906 98.136719 132.011719 98.144531 C 131.742188 98.144531 131.472656 98.144531 131.203125 98.144531 L 114.089844 98.144531 C 113.792969 98.144531 113.496094 98.144531 113.199219 98.132812 C 112.933594 98.121094 112.726562 98.019531 112.710938 97.71875 C 112.695312 97.417969 112.902344 97.234375 113.203125 97.210938 C 113.507812 97.183594 113.742188 97.183594 114.011719 97.183594 L 132.011719 97.183594 C 132.332031 97.183594 132.613281 97.117188 132.699219 96.746094 C 132.785156 96.375 133.085938 96.261719 133.445312 96.269531 C 133.710938 96.269531 133.984375 96.269531 134.25 96.269531 L 193.832031 96.269531 C 194.25 96.269531 194.664062 96.300781 195.082031 96.316406 Z M 195.082031 99.171875 " fill-opacity="1" fill-rule="nonzero"/></g><path fill="#000000" d="M 105.785156 180.652344 C 105.816406 179.375 105.5 179.21875 107.292969 179.015625 C 112.140625 178.46875 116.898438 177.476562 121.558594 176.035156 C 130.679688 173.253906 139.027344 168.96875 146.609375 163.1875 C 150.554688 160.191406 154.199219 156.859375 157.542969 153.203125 C 160.886719 149.542969 163.871094 145.613281 166.503906 141.414062 C 169.132812 137.214844 171.363281 132.8125 173.195312 128.207031 C 175.027344 123.601562 176.429688 118.871094 177.40625 114.011719 C 177.832031 111.902344 178.175781 109.78125 178.402344 107.644531 C 178.5625 106.1875 178.582031 106.183594 180.039062 106.175781 C 181.492188 106.167969 181.535156 106.238281 181.363281 107.695312 C 180.277344 116.9375 177.746094 125.765625 173.769531 134.183594 C 171.90625 138.132812 169.746094 141.914062 167.296875 145.53125 C 164.847656 149.144531 162.132812 152.550781 159.15625 155.75 C 156.179688 158.945312 152.972656 161.894531 149.539062 164.59375 C 146.105469 167.292969 142.484375 169.714844 138.679688 171.851562 C 130.828125 176.261719 122.476562 179.316406 113.632812 181.007812 C 111.523438 181.417969 109.394531 181.71875 107.261719 181.980469 C 107.03125 182.007812 106.785156 182.019531 106.546875 182.027344 C 105.839844 182.050781 105.808594 182.027344 105.785156 181.28125 C 105.777344 181.070312 105.785156 180.859375 105.785156 180.652344 Z M 105.785156 180.652344 " fill-opacity="1" fill-rule="nonzero"/><path fill="#000000" d="M 105.785156 14.722656 C 105.785156 13.253906 105.785156 13.265625 107.289062 13.433594 C 111.535156 13.910156 115.714844 14.710938 119.835938 15.828125 C 123.957031 16.949219 127.964844 18.378906 131.867188 20.117188 C 135.765625 21.855469 139.511719 23.878906 143.097656 26.191406 C 146.6875 28.507812 150.078125 31.082031 153.269531 33.917969 C 156.917969 37.136719 160.257812 40.644531 163.300781 44.441406 C 166.339844 48.238281 169.035156 52.265625 171.382812 56.523438 C 173.730469 60.785156 175.695312 65.214844 177.28125 69.8125 C 178.863281 74.410156 180.042969 79.109375 180.820312 83.910156 C 180.988281 84.941406 181.132812 85.976562 181.277344 87.011719 C 181.308594 87.21875 181.308594 87.425781 181.320312 87.632812 C 181.339844 87.71875 181.335938 87.800781 181.3125 87.878906 C 181.292969 87.960938 181.25 88.035156 181.195312 88.097656 C 181.136719 88.160156 181.066406 88.203125 180.988281 88.234375 C 180.910156 88.261719 180.828125 88.269531 180.742188 88.261719 C 180.296875 88.273438 179.847656 88.28125 179.398438 88.273438 C 178.570312 88.253906 178.496094 88.175781 178.375 87.371094 C 178.144531 85.898438 177.941406 84.421875 177.6875 82.949219 C 176.558594 76.539062 174.671875 70.355469 172.035156 64.40625 C 170.265625 60.386719 168.183594 56.535156 165.792969 52.855469 C 163.402344 49.171875 160.730469 45.703125 157.78125 42.449219 C 154.832031 39.199219 151.644531 36.203125 148.210938 33.460938 C 144.78125 30.722656 141.152344 28.277344 137.324219 26.121094 C 129.660156 21.800781 121.507812 18.832031 112.859375 17.210938 C 111.011719 16.867188 109.160156 16.546875 107.285156 16.378906 C 107.015625 16.351562 106.75 16.3125 106.484375 16.257812 C 105.855469 16.136719 105.820312 16.09375 105.785156 15.4375 C 105.773438 15.199219 105.785156 14.960938 105.785156 14.722656 Z M 105.785156 14.722656 " fill-opacity="1" fill-rule="nonzero"/><path fill="#000000" d="M 87.785156 180.347656 C 87.785156 181.675781 87.988281 181.917969 86.335938 181.683594 C 82.375 181.125 78.476562 180.285156 74.636719 179.164062 C 70.796875 178.046875 67.058594 176.65625 63.417969 175 C 59.78125 173.339844 56.277344 171.429688 52.914062 169.269531 C 49.546875 167.109375 46.355469 164.71875 43.335938 162.097656 C 39.847656 159.082031 36.628906 155.808594 33.679688 152.269531 C 30.726562 148.730469 28.082031 144.980469 25.742188 141.011719 C 23.402344 137.042969 21.398438 132.910156 19.730469 128.613281 C 18.0625 124.320312 16.753906 119.917969 15.804688 115.410156 C 15.234375 112.691406 14.808594 109.949219 14.476562 107.191406 C 14.378906 106.378906 14.496094 106.195312 15.292969 106.1875 C 17.5 106.171875 17.273438 106 17.53125 108.058594 C 18.136719 112.929688 19.171875 117.707031 20.640625 122.390625 C 22.105469 127.078125 23.976562 131.59375 26.253906 135.941406 C 28.53125 140.289062 31.179688 144.398438 34.195312 148.269531 C 37.214844 152.144531 40.550781 155.714844 44.210938 158.984375 C 49.59375 163.824219 55.523438 167.863281 61.996094 171.101562 C 68.925781 174.578125 76.210938 176.984375 83.851562 178.316406 C 84.851562 178.492188 85.859375 178.621094 86.859375 178.789062 C 87.738281 178.941406 87.761719 178.984375 87.773438 179.886719 C 87.785156 180.046875 87.785156 180.199219 87.785156 180.347656 Z M 87.785156 180.347656 " fill-opacity="1" fill-rule="nonzero"/><path fill="#000000" d="M 87.785156 15.074219 C 87.757812 16.210938 88.046875 16.421875 86.480469 16.648438 C 78.257812 17.8125 70.410156 20.210938 62.9375 23.839844 C 58.730469 25.882812 54.730469 28.273438 50.933594 31.003906 C 47.136719 33.734375 43.601562 36.769531 40.328125 40.105469 C 37.054688 43.445312 34.085938 47.039062 31.425781 50.882812 C 28.769531 54.730469 26.457031 58.777344 24.492188 63.019531 C 21.242188 69.996094 19.035156 77.285156 17.878906 84.894531 C 17.75 85.746094 17.648438 86.605469 17.511719 87.460938 C 17.410156 88.148438 17.304688 88.25 16.585938 88.269531 C 16.105469 88.285156 15.628906 88.269531 15.152344 88.269531 C 14.75 88.269531 14.539062 88.039062 14.578125 87.644531 C 14.640625 86.957031 14.707031 86.269531 14.808594 85.597656 C 16.214844 75.683594 19.28125 66.3125 24.003906 57.480469 C 25.859375 54.011719 27.945312 50.691406 30.265625 47.511719 C 32.582031 44.335938 35.105469 41.332031 37.839844 38.503906 C 40.574219 35.679688 43.492188 33.054688 46.589844 30.628906 C 49.6875 28.207031 52.9375 26.011719 56.339844 24.039062 C 64.820312 19.117188 73.890625 15.824219 83.554688 14.160156 C 84.671875 13.96875 85.792969 13.785156 86.917969 13.648438 C 87.730469 13.546875 87.765625 13.613281 87.785156 14.449219 C 87.789062 14.65625 87.785156 14.867188 87.785156 15.074219 Z M 87.785156 15.074219 " fill-opacity="1" fill-rule="nonzero"/><path fill="#000000" d="M 99.394531 107.082031 C 99.003906 107.105469 98.789062 107.03125 98.730469 106.742188 C 98.667969 106.417969 98.730469 106.140625 99.089844 106.023438 C 99.285156 105.960938 99.496094 105.9375 99.699219 105.890625 C 102.996094 105.058594 105.082031 102.992188 105.992188 99.71875 C 106.054688 99.492188 106.089844 99.261719 106.15625 99.03125 C 106.285156 98.609375 106.585938 98.425781 106.949219 98.535156 C 107.3125 98.644531 107.300781 98.96875 107.246094 99.265625 C 106.90625 101.332031 105.984375 103.09375 104.480469 104.550781 C 103.199219 105.824219 101.667969 106.640625 99.898438 106.996094 C 99.683594 107.039062 99.476562 107.070312 99.394531 107.082031 Z M 99.394531 107.082031 " fill-opacity="1" fill-rule="nonzero"/><path fill="#000000" d="M 99.347656 88.285156 C 100.738281 88.492188 102.019531 88.996094 103.179688 89.792969 C 104.21875 90.492188 105.085938 91.363281 105.777344 92.402344 C 106.472656 93.445312 106.941406 94.582031 107.183594 95.808594 C 107.328125 96.496094 107.253906 96.683594 106.886719 96.765625 C 106.460938 96.863281 106.25 96.6875 106.101562 96.042969 C 105.589844 93.835938 104.480469 92.035156 102.582031 90.746094 C 101.738281 90.171875 100.816406 89.769531 99.820312 89.535156 L 99.132812 89.363281 C 98.761719 89.277344 98.671875 89.015625 98.726562 88.675781 C 98.78125 88.339844 98.996094 88.253906 99.347656 88.285156 Z M 99.347656 88.285156 " fill-opacity="1" fill-rule="nonzero"/><path fill="#000000" d="M 96.421875 107.070312 C 95.011719 106.855469 93.730469 106.332031 92.570312 105.5 C 91.570312 104.800781 90.738281 103.9375 90.074219 102.914062 C 89.40625 101.890625 88.957031 100.78125 88.71875 99.585938 C 88.6875 99.441406 88.652344 99.292969 88.632812 99.148438 C 88.597656 98.859375 88.625 98.59375 88.972656 98.527344 C 89.289062 98.464844 89.578125 98.527344 89.695312 98.878906 C 89.773438 99.109375 89.808594 99.335938 89.867188 99.566406 C 90.71875 102.84375 92.757812 104.957031 96.046875 105.84375 C 96.28125 105.890625 96.511719 105.960938 96.734375 106.046875 C 97.019531 106.1875 97.042969 106.464844 96.980469 106.734375 C 96.917969 107.003906 96.6875 107.09375 96.421875 107.070312 Z M 96.421875 107.070312 " fill-opacity="1" fill-rule="nonzero"/><path fill="#000000" d="M 88.640625 96.191406 C 88.785156 95.203125 89.089844 94.273438 89.558594 93.394531 C 90.933594 90.800781 93.019531 89.105469 95.890625 88.414062 C 96.066406 88.371094 96.246094 88.34375 96.421875 88.320312 C 96.679688 88.28125 96.914062 88.320312 96.976562 88.621094 C 97.039062 88.925781 97.011719 89.175781 96.734375 89.324219 C 96.542969 89.414062 96.34375 89.476562 96.140625 89.519531 C 92.769531 90.40625 90.683594 92.554688 89.839844 95.921875 C 89.792969 96.09375 89.765625 96.277344 89.707031 96.445312 C 89.597656 96.753906 89.339844 96.8125 89.050781 96.773438 C 88.703125 96.726562 88.613281 96.496094 88.640625 96.191406 Z M 88.640625 96.191406 " fill-opacity="1" fill-rule="nonzero"/><path fill="#000000" d="M 100.523438 97.683594 C 100.523438 97.9375 100.351562 98.042969 100.128906 98.0625 C 99.773438 98.09375 99.414062 98.085938 99.058594 98.109375 C 98.476562 98.148438 98.40625 98.226562 98.371094 98.796875 C 98.355469 99.0625 98.371094 99.332031 98.355469 99.597656 C 98.34375 99.863281 98.355469 100.195312 97.972656 100.179688 C 97.585938 100.164062 97.625 99.828125 97.601562 99.566406 C 97.578125 99.304688 97.601562 99.089844 97.585938 98.851562 C 97.542969 98.226562 97.460938 98.144531 96.839844 98.097656 C 96.515625 98.078125 96.1875 98.082031 95.863281 98.050781 C 95.769531 98.054688 95.6875 98.023438 95.617188 97.960938 C 95.546875 97.894531 95.511719 97.816406 95.503906 97.722656 C 95.492188 97.453125 95.675781 97.355469 95.902344 97.34375 C 96.257812 97.320312 96.613281 97.3125 96.972656 97.3125 C 97.054688 97.324219 97.136719 97.316406 97.214844 97.292969 C 97.296875 97.265625 97.363281 97.222656 97.425781 97.164062 C 97.484375 97.105469 97.527344 97.039062 97.558594 96.960938 C 97.585938 96.882812 97.59375 96.800781 97.585938 96.71875 C 97.585938 96.328125 97.601562 95.945312 97.632812 95.558594 C 97.652344 95.328125 97.75 95.148438 98.015625 95.15625 C 98.285156 95.167969 98.34375 95.386719 98.351562 95.597656 C 98.367188 95.984375 98.371094 96.375 98.371094 96.761719 C 98.363281 96.835938 98.367188 96.910156 98.390625 96.980469 C 98.417969 97.054688 98.457031 97.117188 98.507812 97.171875 C 98.5625 97.226562 98.625 97.265625 98.695312 97.289062 C 98.769531 97.3125 98.84375 97.320312 98.917969 97.3125 C 99.304688 97.3125 99.691406 97.3125 100.078125 97.332031 C 100.292969 97.347656 100.496094 97.394531 100.523438 97.683594 Z M 100.523438 97.683594 " fill-opacity="1" fill-rule="nonzero"/></g></g></svg>