<svg xmlns="http://www.w3.org/2000/svg" xmlns:xlink="http://www.w3.org/1999/xlink" width="552" zoomAndPan="magnify" viewBox="0 0 414 277.499997" height="370" preserveAspectRatio="xMidYMid meet" version="1.0"><defs><g/><clipPath id="1c6095b241"><path d="M 0.371094 72 L 413.625 72 L 413.625 205 L 0.371094 205 Z M 0.371094 72 " clip-rule="nonzero"/></clipPath><clipPath id="81c0844396"><path d="M 236 0.597656 L 254 0.597656 L 254 22 L 236 22 Z M 236 0.597656 " clip-rule="nonzero"/></clipPath><clipPath id="e2fb4c24f0"><path d="M 126.945312 3 L 286.238281 3 L 286.238281 132.21875 L 126.945312 132.21875 Z M 126.945312 3 " clip-rule="nonzero"/></clipPath><clipPath id="6d256c2fa7"><path d="M 0.371094 2 L 188 2 L 188 114 L 0.371094 114 Z M 0.371094 2 " clip-rule="nonzero"/></clipPath><clipPath id="76f76b72bb"><rect x="0" width="188" y="0" height="112"/></clipPath><clipPath id="d9724087aa"><path d="M 182 19 L 413.386719 19 L 413.386719 131 L 182 131 Z M 182 19 " clip-rule="nonzero"/></clipPath><clipPath id="a1dfa607a5"><rect x="0" width="232" y="0" height="112"/></clipPath><clipPath id="6a71cada9a"><rect x="0" width="414" y="0" height="133"/></clipPath></defs><g clip-path="url(#1c6095b241)"><g transform="matrix(1, 0, 0, 1, 0, 72)"><g clip-path="url(#6a71cada9a)"><g clip-path="url(#81c0844396)"><path fill="#737373" d="M 250.933594 19.703125 C 251.476562 20.722656 252.722656 21.167969 253.582031 21.902344 C 252.65625 18.617188 251.574219 15.394531 250.550781 12.175781 C 250.550781 12.175781 250.550781 12.140625 250.550781 12.140625 L 250.457031 12.046875 L 249.308594 11.089844 L 239.101562 2.605469 L 237.28125 1.074219 L 236.707031 0.597656 C 238.75 5.0625 241.175781 9.335938 243.34375 13.738281 C 245.992188 15.554688 248.289062 17.851562 250.933594 19.703125 Z M 250.933594 19.703125 " fill-opacity="1" fill-rule="nonzero"/></g><path fill="#737373" d="M 250.390625 26.6875 C 251.988281 26.242188 253.613281 26.335938 255.207031 26.878906 C 252.976562 24.804688 250.390625 23.210938 247.9375 21.390625 C 248.414062 23.304688 249.46875 24.964844 250.390625 26.6875 Z M 250.390625 26.6875 " fill-opacity="1" fill-rule="nonzero"/><path fill="#737373" d="M 256.324219 37.789062 C 256.898438 38.617188 257.601562 39.320312 258.398438 39.925781 C 258.429688 38.042969 258.367188 36.128906 258.300781 34.246094 C 254.761719 35.652344 251.253906 37.214844 247.839844 38.902344 C 250.710938 38.839844 253.519531 38.234375 256.324219 37.789062 Z M 256.324219 37.789062 " fill-opacity="1" fill-rule="nonzero"/><path fill="#737373" d="M 257.953125 33.578125 C 259.417969 32.621094 260.375 31.152344 261.398438 29.75 C 259.867188 28.664062 258.207031 27.804688 256.484375 27.132812 C 257.632812 29.113281 258.113281 31.28125 257.953125 33.578125 Z M 257.953125 33.578125 " fill-opacity="1" fill-rule="nonzero"/><g clip-path="url(#e2fb4c24f0)"><path fill="#737373" d="M 275.621094 49.84375 L 275.621094 49.207031 C 267.648438 49.109375 259.640625 48.726562 251.667969 48.601562 C 245.128906 47.515625 239.101562 50.675781 232.945312 52.171875 L 233.488281 52.394531 L 232.945312 52.238281 L 232.5 52.523438 C 232.210938 52.492188 231.605469 52.460938 231.316406 52.429688 C 232.402344 52.363281 233.265625 51.664062 234.21875 51.214844 C 236.359375 49.8125 239.003906 49.207031 240.949219 47.484375 C 242.609375 47.261719 243.980469 46.144531 245.480469 45.410156 C 243.597656 44.261719 241.652344 43.242188 239.738281 42.15625 C 240.664062 39.253906 241.75 36.414062 242.578125 33.480469 C 242.863281 32.90625 243.152344 32.015625 243.4375 31.28125 C 240.949219 31.886719 238.398438 32.140625 235.941406 32.8125 C 233.933594 32.9375 231.957031 33.355469 230.011719 33.832031 L 229.945312 33.671875 C 233.933594 32.046875 237.761719 30.035156 241.652344 28.1875 L 241.683594 28.1875 C 238.367188 25.539062 228.703125 23.082031 221.429688 21.519531 C 216.964844 20.5625 213.390625 19.957031 212.785156 19.828125 L 221.910156 21.011719 L 224.8125 21.390625 L 237.410156 23.050781 C 237.316406 21.199219 237.25 19.351562 237.089844 17.53125 L 237.21875 16.800781 C 239.101562 16.449219 240.601562 15.171875 242.257812 14.3125 L 242.132812 12.429688 C 240.984375 9.082031 237.921875 6.71875 235.816406 3.914062 C 231.191406 3.816406 226.535156 3.464844 221.910156 3.691406 L 220.792969 3.691406 L 220.824219 3.65625 C 219.070312 3.625 217.316406 3.625 215.5625 3.625 L 216.484375 6.59375 C 216.453125 6.65625 216.421875 6.71875 216.390625 6.785156 L 199.613281 13.132812 L 198.878906 13.417969 L 199.101562 13.671875 L 199.324219 13.898438 L 199.644531 14.246094 L 204.332031 19.097656 C 200.1875 21.265625 196.359375 24.105469 192.53125 26.816406 C 192.308594 26.878906 191.863281 27.007812 191.605469 27.070312 C 192.945312 28.25 194.347656 29.429688 195.914062 30.355469 C 193.425781 32.683594 191.320312 35.617188 189.277344 38.425781 C 193.265625 38.011719 196.964844 36 200.984375 35.875 C 198.273438 37.054688 195.496094 38.234375 193.042969 39.894531 C 190.296875 42.730469 187.621094 45.601562 185.003906 48.503906 C 183.058594 50.546875 181.175781 52.621094 179.324219 54.726562 C 178.082031 55.140625 176.804688 55.492188 175.5625 55.839844 C 171.988281 56.828125 168.449219 57.851562 164.875 58.839844 C 164.621094 59.351562 164.367188 59.828125 164.144531 60.339844 L 164.460938 59.03125 C 163.761719 59.191406 162.355469 59.476562 161.625 59.636719 C 159.039062 60.914062 156.648438 62.476562 154.191406 63.976562 C 154 63.910156 153.648438 63.816406 153.457031 63.785156 C 150.683594 60.308594 147.652344 57.054688 144.910156 53.542969 C 149.726562 47.484375 154.511719 41.359375 159.261719 35.203125 L 159.421875 35.171875 C 160.1875 34.183594 160.824219 33.066406 161.816406 32.269531 C 163.378906 31.695312 165.003906 31.375 166.566406 30.800781 C 167.683594 30.484375 168.832031 30.195312 169.980469 30.101562 C 169.691406 29.972656 169.183594 29.75 168.894531 29.621094 C 169.214844 29.589844 169.851562 29.558594 170.171875 29.527344 C 171.449219 26.207031 173.011719 23.019531 174.0625 19.605469 C 174.414062 18.777344 174.796875 17.949219 175.117188 17.085938 C 170.363281 17.566406 165.769531 19.160156 161.113281 20.085938 C 160.21875 23.148438 159.292969 26.175781 158.816406 29.335938 C 157.730469 31.023438 156.390625 32.523438 154.988281 33.960938 C 148.898438 40.691406 142.675781 47.324219 136.808594 54.246094 C 136.457031 54.597656 135.753906 55.332031 135.4375 55.683594 L 135.019531 55.808594 C 135.179688 55.871094 135.5 56 135.660156 56.0625 C 137.667969 61.421875 140.761719 66.335938 142.996094 71.597656 C 144.429688 73.382812 146.28125 74.757812 147.941406 76.320312 C 151.703125 72.078125 155.050781 67.453125 158.847656 63.242188 C 156.617188 67.035156 154.0625 70.609375 151.925781 74.4375 L 151.640625 74.4375 C 151.382812 75.203125 151.097656 75.96875 150.808594 76.734375 L 150.492188 76.03125 C 149.152344 80.59375 147.75 85.121094 146.410156 89.683594 C 144.367188 96.734375 142.132812 103.75 140.285156 110.863281 C 138.53125 111.566406 136.96875 112.679688 135.246094 113.480469 L 134.796875 114.179688 C 134.636719 114.402344 134.320312 114.882812 134.160156 115.105469 C 133.492188 116.988281 132.726562 118.871094 131.925781 120.71875 C 131.832031 120.941406 131.640625 121.421875 131.511719 121.644531 C 131.386719 121.898438 131.160156 122.441406 131.035156 122.695312 C 130.9375 122.886719 130.777344 123.304688 130.683594 123.496094 C 129.726562 125.824219 128.578125 128.085938 127.84375 130.480469 C 127.621094 130.957031 127.175781 131.914062 126.953125 132.394531 C 131.351562 130.351562 135.851562 128.4375 140.0625 126.046875 C 145.800781 118.871094 151.417969 111.597656 157.03125 104.324219 C 157.347656 104.070312 158.019531 103.589844 158.339844 103.335938 C 152.597656 111.851562 146.824219 120.398438 141.433594 129.140625 C 144.460938 127.355469 147.207031 125.152344 150.140625 123.207031 C 151.226562 122.410156 152.53125 121.773438 153.203125 120.527344 C 157.125 113.734375 160.921875 106.84375 164.910156 100.082031 C 170.074219 95.871094 175.816406 92.363281 181.015625 88.183594 C 182.003906 85.058594 183.089844 81.996094 183.917969 78.839844 C 185.226562 74.628906 186.980469 70.515625 187.621094 66.144531 C 187.8125 65.824219 188.226562 65.15625 188.417969 64.835938 C 188.800781 64.707031 189.148438 64.550781 189.5 64.324219 C 186.949219 66.175781 187.492188 69.75 187.429688 72.617188 C 187.300781 72.808594 187.011719 73.226562 186.886719 73.417969 C 186.855469 75.585938 186.597656 77.722656 186.375 79.859375 C 186.121094 82.21875 186.089844 84.613281 186.054688 87.003906 C 199.230469 82.667969 212.53125 78.839844 225.671875 74.4375 C 224.652344 70.863281 223.695312 67.261719 222.769531 63.6875 C 222.003906 62.601562 221.238281 61.550781 220.535156 60.433594 C 219.675781 58.933594 218.175781 57.722656 218.144531 55.839844 C 220.953125 59.285156 223.980469 62.570312 226.949219 65.886719 C 230.617188 66.941406 234.507812 67.132812 238.273438 67.738281 L 238.460938 67.578125 C 242.324219 67.644531 246.054688 66.238281 249.851562 65.792969 C 251.730469 67.226562 253.550781 68.792969 255.558594 70.097656 C 257.121094 70.386719 258.683594 70.355469 260.28125 70.417969 C 262.609375 70.769531 265.097656 70.226562 267.328125 71.152344 C 269.914062 72.171875 272.402344 73.382812 274.984375 74.40625 C 276.261719 71.503906 277.535156 68.566406 278.683594 65.601562 C 278.367188 65.570312 277.761719 65.539062 277.441406 65.539062 C 269.402344 61.644531 260.980469 58.488281 252.65625 55.234375 C 253.996094 55.363281 255.304688 55.492188 256.613281 55.683594 C 258.429688 56.542969 260.472656 56.894531 262.355469 57.5625 L 262.671875 57.308594 C 266.085938 57.308594 269.433594 56.636719 272.847656 56.574219 C 274.890625 58.074219 276.769531 59.765625 278.875 61.136719 C 280.535156 61.773438 282.351562 61.488281 284.074219 61.613281 C 284.90625 59.160156 286.054688 56.765625 286.46875 54.183594 C 282.769531 52.8125 279.480469 50.515625 275.621094 49.84375 Z M 212.660156 19.894531 C 212.5625 19.894531 212.46875 19.863281 212.371094 19.828125 Z M 212.660156 19.894531 " fill-opacity="1" fill-rule="nonzero"/></g><g clip-path="url(#6d256c2fa7)"><g transform="matrix(1, 0, 0, 1, 0, 2)"><g clip-path="url(#76f76b72bb)"><g fill="#0a2540" fill-opacity="1"><g transform="translate(-0.0296635, 83.371021)"><g><path d="M 51.125 -56.078125 L 49.28125 -45.296875 L 34.34375 -45.296875 L 26.359375 0 L 12.703125 0 L 20.6875 -45.296875 L 5.828125 -45.296875 L 7.75 -56.078125 Z M 51.125 -56.078125 "/></g></g></g><g fill="#0a2540" fill-opacity="1"><g transform="translate(41.744121, 83.371021)"><g><path d="M 16.453125 -49.203125 C 14.328125 -49.203125 12.632812 -49.773438 11.375 -50.921875 C 10.125 -52.066406 9.5 -53.519531 9.5 -55.28125 C 9.5 -57.675781 10.429688 -59.722656 12.296875 -61.421875 C 14.160156 -63.128906 16.425781 -63.984375 19.09375 -63.984375 C 21.21875 -63.984375 22.890625 -63.410156 24.109375 -62.265625 C 25.335938 -61.117188 25.953125 -59.640625 25.953125 -57.828125 C 25.953125 -55.484375 25.019531 -53.457031 23.15625 -51.75 C 21.300781 -50.050781 19.066406 -49.203125 16.453125 -49.203125 Z M 22.359375 -44.5625 L 14.53125 0 L 0.875 0 L 8.703125 -44.5625 Z M 22.359375 -44.5625 "/></g></g></g><g fill="#0a2540" fill-opacity="1"><g transform="translate(59.875033, 83.371021)"><g><path d="M 65.734375 -45.046875 C 70.523438 -45.046875 74.265625 -43.78125 76.953125 -41.25 C 79.648438 -38.726562 81 -35.203125 81 -30.671875 C 81 -29.285156 80.835938 -27.742188 80.515625 -26.046875 L 75.875 0 L 62.296875 0 L 66.609375 -24.203125 C 66.722656 -24.734375 66.78125 -25.453125 66.78125 -26.359375 C 66.78125 -28.597656 66.148438 -30.300781 64.890625 -31.46875 C 63.640625 -32.644531 61.898438 -33.234375 59.671875 -33.234375 C 57.003906 -33.234375 54.765625 -32.445312 52.953125 -30.875 C 51.140625 -29.300781 49.992188 -27.078125 49.515625 -24.203125 L 45.203125 0 L 31.625 0 L 35.9375 -24.203125 C 36.050781 -24.734375 36.109375 -25.453125 36.109375 -26.359375 C 36.109375 -28.597656 35.476562 -30.300781 34.21875 -31.46875 C 32.96875 -32.644531 31.226562 -33.234375 29 -33.234375 C 26.332031 -33.234375 24.09375 -32.445312 22.28125 -30.875 C 20.46875 -29.300781 19.320312 -27.078125 18.84375 -24.203125 L 18.84375 -24.59375 L 14.53125 0 L 0.875 0 L 8.703125 -44.5625 L 22.359375 -44.5625 L 21.40625 -38.90625 C 23.113281 -40.820312 25.175781 -42.320312 27.59375 -43.40625 C 30.019531 -44.5 32.644531 -45.046875 35.46875 -45.046875 C 38.875 -45.046875 41.757812 -44.328125 44.125 -42.890625 C 46.5 -41.453125 48.191406 -39.375 49.203125 -36.65625 C 51.171875 -39.164062 53.617188 -41.191406 56.546875 -42.734375 C 59.472656 -44.273438 62.535156 -45.046875 65.734375 -45.046875 Z M 65.734375 -45.046875 "/></g></g></g><g fill="#0a2540" fill-opacity="1"><g transform="translate(139.030097, 83.371021)"><g><path d="M 28.671875 -45.203125 C 34.421875 -45.203125 38.988281 -43.644531 42.375 -40.53125 C 45.757812 -37.414062 47.453125 -33.171875 47.453125 -27.796875 C 47.453125 -26.035156 47.316406 -24.460938 47.046875 -23.078125 C 46.835938 -21.859375 46.519531 -20.554688 46.09375 -19.171875 L 15.171875 -19.171875 C 15.117188 -18.847656 15.09375 -18.34375 15.09375 -17.65625 C 15.09375 -15.3125 15.734375 -13.523438 17.015625 -12.296875 C 18.296875 -11.078125 20 -10.46875 22.125 -10.46875 C 25.53125 -10.46875 28.140625 -11.90625 29.953125 -14.78125 L 44.484375 -14.78125 C 42.566406 -10.25 39.453125 -6.546875 35.140625 -3.671875 C 30.828125 -0.796875 25.984375 0.640625 20.609375 0.640625 C 14.859375 0.640625 10.265625 -0.957031 6.828125 -4.15625 C 3.390625 -7.351562 1.671875 -11.691406 1.671875 -17.171875 C 1.671875 -18.828125 1.832031 -20.53125 2.15625 -22.28125 C 2.957031 -26.914062 4.609375 -30.960938 7.109375 -34.421875 C 9.609375 -37.890625 12.722656 -40.550781 16.453125 -42.40625 C 20.179688 -44.269531 24.253906 -45.203125 28.671875 -45.203125 Z M 33.625 -26.125 C 33.726562 -26.863281 33.78125 -27.367188 33.78125 -27.640625 C 33.78125 -29.765625 33.113281 -31.398438 31.78125 -32.546875 C 30.457031 -33.691406 28.703125 -34.265625 26.515625 -34.265625 C 24.171875 -34.265625 22.109375 -33.554688 20.328125 -32.140625 C 18.546875 -30.734375 17.253906 -28.726562 16.453125 -26.125 Z M 33.625 -26.125 "/></g></g></g></g></g></g><g clip-path="url(#d9724087aa)"><g transform="matrix(1, 0, 0, 1, 182, 19)"><g clip-path="url(#a1dfa607a5)"><g fill="#0a2540" fill-opacity="1"><g transform="translate(0.836514, 82.89894)"><g><path d="M 23.15625 0.5625 C 17.09375 0.5625 12.15625 -0.753906 8.34375 -3.390625 C 4.539062 -6.023438 2.640625 -9.765625 2.640625 -14.609375 C 2.640625 -15.097656 2.691406 -15.820312 2.796875 -16.78125 L 17.015625 -16.78125 C 16.859375 -14.75 17.335938 -13.144531 18.453125 -11.96875 C 19.566406 -10.800781 21.269531 -10.21875 23.5625 -10.21875 C 25.632812 -10.21875 27.269531 -10.671875 28.46875 -11.578125 C 29.664062 -12.484375 30.265625 -13.765625 30.265625 -15.421875 C 30.265625 -17.117188 29.503906 -18.5 27.984375 -19.5625 C 26.472656 -20.632812 24.117188 -21.832031 20.921875 -23.15625 C 17.835938 -24.4375 15.320312 -25.648438 13.375 -26.796875 C 11.4375 -27.941406 9.75 -29.5 8.3125 -31.46875 C 6.875 -33.4375 6.15625 -35.914062 6.15625 -38.90625 C 6.101562 -42.570312 7.003906 -45.765625 8.859375 -48.484375 C 10.722656 -51.203125 13.304688 -53.28125 16.609375 -54.71875 C 19.910156 -56.15625 23.691406 -56.875 27.953125 -56.875 C 31.785156 -56.875 35.191406 -56.273438 38.171875 -55.078125 C 41.160156 -53.878906 43.476562 -52.144531 45.125 -49.875 C 46.78125 -47.613281 47.609375 -44.941406 47.609375 -41.859375 C 47.609375 -41.054688 47.582031 -40.46875 47.53125 -40.09375 L 32.984375 -40.09375 C 33.035156 -40.3125 33.0625 -40.632812 33.0625 -41.0625 C 33.0625 -42.550781 32.539062 -43.757812 31.5 -44.6875 C 30.46875 -45.625 29.046875 -46.09375 27.234375 -46.09375 C 25.316406 -46.09375 23.757812 -45.625 22.5625 -44.6875 C 21.363281 -43.757812 20.765625 -42.492188 20.765625 -40.890625 C 20.765625 -39.296875 21.507812 -37.953125 23 -36.859375 C 24.488281 -35.765625 26.804688 -34.5 29.953125 -33.0625 C 33.097656 -31.625 35.664062 -30.289062 37.65625 -29.0625 C 39.65625 -27.84375 41.375 -26.207031 42.8125 -24.15625 C 44.25 -22.113281 44.96875 -19.597656 44.96875 -16.609375 C 44.96875 -13.304688 44.085938 -10.347656 42.328125 -7.734375 C 40.578125 -5.128906 38.050781 -3.09375 34.75 -1.625 C 31.445312 -0.164062 27.582031 0.5625 23.15625 0.5625 Z M 23.15625 0.5625 "/></g></g></g><g fill="#0a2540" fill-opacity="1"><g transform="translate(45.086407, 82.89894)"><g><path d="M 2.15625 -22.28125 C 2.957031 -26.914062 4.609375 -30.960938 7.109375 -34.421875 C 9.609375 -37.890625 12.707031 -40.550781 16.40625 -42.40625 C 20.113281 -44.269531 24.148438 -45.203125 28.515625 -45.203125 C 34.109375 -45.203125 38.523438 -43.738281 41.765625 -40.8125 C 45.015625 -37.882812 46.75 -33.757812 46.96875 -28.4375 L 32.421875 -28.4375 C 31.835938 -31.84375 29.765625 -33.546875 26.203125 -33.546875 C 23.691406 -33.546875 21.53125 -32.570312 19.71875 -30.625 C 17.914062 -28.6875 16.695312 -25.90625 16.0625 -22.28125 C 15.84375 -21.164062 15.734375 -19.992188 15.734375 -18.765625 C 15.734375 -16.265625 16.316406 -14.347656 17.484375 -13.015625 C 18.660156 -11.679688 20.257812 -11.015625 22.28125 -11.015625 C 25.800781 -11.015625 28.4375 -12.722656 30.1875 -16.140625 L 44.8125 -16.140625 C 42.726562 -10.921875 39.53125 -6.816406 35.21875 -3.828125 C 30.90625 -0.847656 25.984375 0.640625 20.453125 0.640625 C 14.703125 0.640625 10.132812 -0.941406 6.75 -4.109375 C 3.363281 -7.273438 1.671875 -11.601562 1.671875 -17.09375 C 1.671875 -18.738281 1.832031 -20.46875 2.15625 -22.28125 Z M 2.15625 -22.28125 "/></g></g></g><g fill="#0a2540" fill-opacity="1"><g transform="translate(87.978426, 82.89894)"><g><path d="M 21.25 0.640625 C 17.414062 0.640625 14.003906 -0.128906 11.015625 -1.671875 C 8.035156 -3.222656 5.734375 -5.40625 4.109375 -8.21875 C 2.484375 -11.039062 1.671875 -14.316406 1.671875 -18.046875 C 1.671875 -23.109375 2.867188 -27.710938 5.265625 -31.859375 C 7.660156 -36.015625 10.960938 -39.273438 15.171875 -41.640625 C 19.378906 -44.015625 24.066406 -45.203125 29.234375 -45.203125 C 33.066406 -45.203125 36.488281 -44.414062 39.5 -42.84375 C 42.507812 -41.28125 44.835938 -39.085938 46.484375 -36.265625 C 48.140625 -33.441406 48.96875 -30.164062 48.96875 -26.4375 C 48.96875 -21.320312 47.753906 -16.703125 45.328125 -12.578125 C 42.898438 -8.453125 39.570312 -5.21875 35.34375 -2.875 C 31.113281 -0.53125 26.414062 0.640625 21.25 0.640625 Z M 23.15625 -11.109375 C 25.394531 -11.109375 27.40625 -11.785156 29.1875 -13.140625 C 30.976562 -14.492188 32.363281 -16.25 33.34375 -18.40625 C 34.332031 -20.5625 34.828125 -22.8125 34.828125 -25.15625 C 34.828125 -27.820312 34.109375 -29.875 32.671875 -31.3125 C 31.234375 -32.75 29.421875 -33.46875 27.234375 -33.46875 C 24.941406 -33.46875 22.929688 -32.785156 21.203125 -31.421875 C 19.472656 -30.066406 18.128906 -28.296875 17.171875 -26.109375 C 16.210938 -23.929688 15.734375 -21.644531 15.734375 -19.25 C 15.734375 -16.644531 16.425781 -14.632812 17.8125 -13.21875 C 19.195312 -11.8125 20.976562 -11.109375 23.15625 -11.109375 Z M 23.15625 -11.109375 "/></g></g></g><g fill="#0a2540" fill-opacity="1"><g transform="translate(133.426429, 82.89894)"><g><path d="M 21.25 -38.265625 C 22.945312 -40.335938 25.085938 -42.007812 27.671875 -43.28125 C 30.253906 -44.5625 33.117188 -45.203125 36.265625 -45.203125 C 41.054688 -45.203125 44.925781 -43.628906 47.875 -40.484375 C 50.832031 -37.347656 52.3125 -33.09375 52.3125 -27.71875 C 52.3125 -26.0625 52.15625 -24.273438 51.84375 -22.359375 C 51.039062 -17.785156 49.46875 -13.753906 47.125 -10.265625 C 44.78125 -6.773438 41.957031 -4.082031 38.65625 -2.1875 C 35.351562 -0.300781 31.867188 0.640625 28.203125 0.640625 C 25.109375 0.640625 22.492188 0.00390625 20.359375 -1.265625 C 18.234375 -2.546875 16.664062 -4.203125 15.65625 -6.234375 L 10.78125 21.25 L -2.875 21.25 L 8.703125 -44.5625 L 22.359375 -44.5625 Z M 38.015625 -22.359375 C 38.179688 -23.265625 38.265625 -24.09375 38.265625 -24.84375 C 38.265625 -27.5 37.503906 -29.570312 35.984375 -31.0625 C 34.460938 -32.5625 32.53125 -33.3125 30.1875 -33.3125 C 27.476562 -33.3125 25.003906 -32.320312 22.765625 -30.34375 C 20.523438 -28.375 19.085938 -25.6875 18.453125 -22.28125 C 18.296875 -21.320312 18.21875 -20.445312 18.21875 -19.65625 C 18.21875 -17.039062 18.960938 -14.988281 20.453125 -13.5 C 21.941406 -12.007812 23.859375 -11.265625 26.203125 -11.265625 C 28.910156 -11.265625 31.394531 -12.257812 33.65625 -14.25 C 35.925781 -16.25 37.378906 -18.953125 38.015625 -22.359375 Z M 38.015625 -22.359375 "/></g></g></g><g fill="#0a2540" fill-opacity="1"><g transform="translate(182.229161, 82.89894)"><g><path d="M 28.671875 -45.203125 C 34.421875 -45.203125 38.988281 -43.644531 42.375 -40.53125 C 45.757812 -37.414062 47.453125 -33.171875 47.453125 -27.796875 C 47.453125 -26.035156 47.316406 -24.460938 47.046875 -23.078125 C 46.835938 -21.859375 46.519531 -20.554688 46.09375 -19.171875 L 15.171875 -19.171875 C 15.117188 -18.847656 15.09375 -18.34375 15.09375 -17.65625 C 15.09375 -15.3125 15.734375 -13.523438 17.015625 -12.296875 C 18.296875 -11.078125 20 -10.46875 22.125 -10.46875 C 25.53125 -10.46875 28.140625 -11.90625 29.953125 -14.78125 L 44.484375 -14.78125 C 42.566406 -10.25 39.453125 -6.546875 35.140625 -3.671875 C 30.828125 -0.796875 25.984375 0.640625 20.609375 0.640625 C 14.859375 0.640625 10.265625 -0.957031 6.828125 -4.15625 C 3.390625 -7.351562 1.671875 -11.691406 1.671875 -17.171875 C 1.671875 -18.828125 1.832031 -20.53125 2.15625 -22.28125 C 2.957031 -26.914062 4.609375 -30.960938 7.109375 -34.421875 C 9.609375 -37.890625 12.722656 -40.550781 16.453125 -42.40625 C 20.179688 -44.269531 24.253906 -45.203125 28.671875 -45.203125 Z M 33.625 -26.125 C 33.726562 -26.863281 33.78125 -27.367188 33.78125 -27.640625 C 33.78125 -29.765625 33.113281 -31.398438 31.78125 -32.546875 C 30.457031 -33.691406 28.703125 -34.265625 26.515625 -34.265625 C 24.171875 -34.265625 22.109375 -33.554688 20.328125 -32.140625 C 18.546875 -30.734375 17.253906 -28.726562 16.453125 -26.125 Z M 33.625 -26.125 "/></g></g></g></g></g></g></g></g></g></svg>